<svg width="94" height="130" viewBox="0 0 94 130" fill="none" xmlns="http://www.w3.org/2000/svg">
<g filter="url(#filter0_d_31_1250)">
<g clip-path="url(#clip0_31_1250)">
<rect width="94" height="130" fill="white"/>
<rect x="13" y="99" width="70" height="22" rx="11" fill="#6327FE"/>
<path d="M21.6078 91.117C23.3088 91.117 24.4968 89.794 24.4968 87.661C24.4968 85.528 23.3088 84.25 21.6078 84.25C19.9068 84.25 18.7278 85.528 18.7278 87.661C18.7278 89.794 19.9068 91.117 21.6078 91.117ZM21.6078 90.208C20.5098 90.208 19.7988 89.209 19.7988 87.661C19.7988 86.104 20.5098 85.159 21.6078 85.159C22.7058 85.159 23.4258 86.104 23.4258 87.661C23.4258 89.209 22.7058 90.208 21.6078 90.208ZM25.783 91H26.818V87.913C27.124 87.13 27.61 86.851 28.015 86.851C28.213 86.851 28.339 86.878 28.51 86.932L28.699 86.032C28.546 85.96 28.384 85.924 28.141 85.924C27.61 85.924 27.088 86.302 26.737 86.941H26.71L26.629 86.05H25.783V91ZM29.4656 91H30.5006V86.05H29.4656V91ZM29.9786 85.123C30.3566 85.123 30.6266 84.88 30.6266 84.502C30.6266 84.133 30.3566 83.89 29.9786 83.89C29.6006 83.89 29.3396 84.133 29.3396 84.502C29.3396 84.88 29.6006 85.123 29.9786 85.123ZM33.7416 93.223C35.3256 93.223 36.3336 92.449 36.3336 91.495C36.3336 90.649 35.7216 90.289 34.5516 90.289H33.6426C33.0126 90.289 32.8146 90.1 32.8146 89.803C32.8146 89.56 32.9226 89.425 33.0846 89.281C33.3006 89.38 33.5526 89.434 33.7776 89.434C34.8126 89.434 35.6316 88.813 35.6316 87.733C35.6316 87.355 35.4966 87.022 35.3076 86.824H36.2526V86.05H34.4976C34.3086 85.978 34.0566 85.924 33.7776 85.924C32.7516 85.924 31.8606 86.581 31.8606 87.697C31.8606 88.291 32.1756 88.759 32.5176 89.02V89.056C32.2386 89.254 31.9596 89.587 31.9596 89.974C31.9596 90.379 32.1576 90.64 32.4096 90.793V90.838C31.9506 91.117 31.6896 91.504 31.6896 91.918C31.6896 92.782 32.5536 93.223 33.7416 93.223ZM33.7776 88.768C33.2646 88.768 32.8416 88.363 32.8416 87.697C32.8416 87.031 33.2556 86.653 33.7776 86.653C34.2996 86.653 34.7136 87.04 34.7136 87.697C34.7136 88.363 34.2906 88.768 33.7776 88.768ZM33.8946 92.539C33.0756 92.539 32.5716 92.251 32.5716 91.765C32.5716 91.513 32.6976 91.261 32.9946 91.045C33.2016 91.09 33.4266 91.117 33.6606 91.117H34.4076C35.0106 91.117 35.3346 91.243 35.3346 91.657C35.3346 92.116 34.7586 92.539 33.8946 92.539ZM37.2527 91H38.2877V86.05H37.2527V91ZM37.7657 85.123C38.1437 85.123 38.4137 84.88 38.4137 84.502C38.4137 84.133 38.1437 83.89 37.7657 83.89C37.3877 83.89 37.1267 84.133 37.1267 84.502C37.1267 84.88 37.3877 85.123 37.7657 85.123ZM39.8367 91H40.8717V87.49C41.3037 87.049 41.6187 86.815 42.0777 86.815C42.6627 86.815 42.9147 87.157 42.9147 88.012V91H43.9497V87.886C43.9497 86.626 43.4817 85.924 42.4287 85.924C41.7537 85.924 41.2497 86.293 40.7907 86.734H40.7637L40.6827 86.05H39.8367V91ZM46.6229 91.117C47.2169 91.117 47.7479 90.82 48.1979 90.433H48.2339L48.3149 91H49.1609V88.021C49.1609 86.707 48.5939 85.924 47.3609 85.924C46.5689 85.924 45.8759 86.248 45.3629 86.572L45.7499 87.274C46.1729 87.004 46.6589 86.77 47.1809 86.77C47.9099 86.77 48.1169 87.274 48.1259 87.85C46.0649 88.075 45.1649 88.624 45.1649 89.686C45.1649 90.559 45.7679 91.117 46.6229 91.117ZM46.9379 90.298C46.4969 90.298 46.1639 90.1 46.1639 89.614C46.1639 89.056 46.6589 88.678 48.1259 88.507V89.722C47.7209 90.091 47.3699 90.298 46.9379 90.298ZM51.6557 91.117C51.9167 91.117 52.0877 91.081 52.2137 91.036L52.0787 90.253C51.9887 90.271 51.9527 90.271 51.9077 90.271C51.7817 90.271 51.6647 90.172 51.6647 89.893V83.827H50.6297V89.839C50.6297 90.64 50.9087 91.117 51.6557 91.117ZM52.6443 92.314H57.4683V91.675H52.6443V92.314ZM61.0371 91.117C61.8921 91.117 62.5671 90.775 63.0981 90.163L62.5401 89.506C62.1441 89.938 61.6851 90.208 61.0731 90.208C59.9031 90.208 59.1651 89.245 59.1651 87.67C59.1651 86.113 59.9571 85.159 61.1001 85.159C61.6401 85.159 62.0541 85.402 62.3961 85.753L62.9631 85.087C62.5581 84.646 61.9101 84.25 61.0821 84.25C59.4081 84.25 58.0941 85.546 58.0941 87.706C58.0941 89.875 59.3721 91.117 61.0371 91.117ZM66.1624 91.117C67.3864 91.117 68.4934 90.172 68.4934 88.525C68.4934 86.878 67.3864 85.924 66.1624 85.924C64.9384 85.924 63.8314 86.878 63.8314 88.525C63.8314 90.172 64.9384 91.117 66.1624 91.117ZM66.1624 90.271C65.3884 90.271 64.9024 89.578 64.9024 88.525C64.9024 87.481 65.3884 86.779 66.1624 86.779C66.9454 86.779 67.4314 87.481 67.4314 88.525C67.4314 89.578 66.9454 90.271 66.1624 90.271ZM70.7367 91.117C70.9977 91.117 71.1687 91.081 71.2947 91.036L71.1597 90.253C71.0697 90.271 71.0337 90.271 70.9887 90.271C70.8627 90.271 70.7457 90.172 70.7457 89.893V83.827H69.7107V89.839C69.7107 90.64 69.9897 91.117 70.7367 91.117ZM73.5614 91.117C74.1554 91.117 74.6864 90.82 75.1364 90.433H75.1724L75.2534 91H76.0994V88.021C76.0994 86.707 75.5324 85.924 74.2994 85.924C73.5074 85.924 72.8144 86.248 72.3014 86.572L72.6884 87.274C73.1114 87.004 73.5974 86.77 74.1194 86.77C74.8484 86.77 75.0554 87.274 75.0644 87.85C73.0034 88.075 72.1034 88.624 72.1034 89.686C72.1034 90.559 72.7064 91.117 73.5614 91.117ZM73.8764 90.298C73.4354 90.298 73.1024 90.1 73.1024 89.614C73.1024 89.056 73.5974 88.678 75.0644 88.507V89.722C74.6594 90.091 74.3084 90.298 73.8764 90.298Z" fill="#333333"/>
<g clip-path="url(#clip1_31_1250)">
<path d="M64.9305 18.6282V68.3718C64.9305 68.5721 64.8494 68.7638 64.7041 68.8983C64.4664 69.1243 64.2428 69.4047 64.0415 69.7338C63.4292 70.7552 63.2475 71.9026 63.2196 72.1029C63.0742 75.1216 52.979 75.9285 46.999 75.9285C41.0135 75.9285 30.8987 75.1187 30.7785 72.0972C30.7561 71.9169 30.58 70.7638 29.9565 69.7309C29.7608 69.4047 29.54 69.1243 29.2996 68.9011C29.1542 68.7638 29.0703 68.5721 29.0703 68.3718V18.6311C29.0703 18.5281 29.0927 18.4336 29.129 18.3449C29.1318 18.3364 29.1374 18.3306 29.1402 18.3249C29.157 18.2877 29.1765 18.2534 29.1989 18.2219C29.2073 18.2076 29.2157 18.199 29.2241 18.1876C29.2436 18.1618 29.266 18.1361 29.2912 18.1132C29.294 18.1103 29.2968 18.1046 29.2996 18.1017C29.5428 17.8757 29.7636 17.5981 29.9565 17.2748C30.6331 16.1532 30.7813 14.8885 30.7813 14.8742C30.7841 14.8627 30.7897 14.8484 30.7897 14.837C31.0552 11.8698 41.0554 11.0715 46.999 11.0715C52.9454 11.0715 62.9428 11.8698 63.2084 14.837C63.2112 14.8484 63.2168 14.8599 63.2168 14.8742C63.2196 14.8856 63.3761 16.1618 64.0443 17.272C64.2344 17.5867 64.4497 17.8614 64.6845 18.0846L64.6957 18.096C64.6985 18.0989 64.7013 18.1017 64.7041 18.1046L64.7069 18.1075C64.7376 18.1389 64.7656 18.1704 64.7935 18.2076C64.7991 18.2133 64.8019 18.2219 64.8075 18.2305C64.8271 18.262 64.8467 18.2934 64.8634 18.3278C64.8662 18.3364 64.8718 18.3449 64.8746 18.3564C64.8886 18.3907 64.8998 18.4279 64.9082 18.4651C64.911 18.4737 64.9137 18.4823 64.9165 18.4909C64.9165 18.4966 64.9193 18.5052 64.9221 18.5109C64.9277 18.551 64.9305 18.5882 64.9305 18.6282ZM63.5355 67.9741L63.5327 20.3822C63.5243 20.3879 63.5159 20.3908 63.5075 20.3965C63.3901 20.4566 63.2587 20.5195 63.1217 20.5825C63.0462 20.6168 62.9512 20.6569 62.8477 20.6969C62.7052 20.757 62.5458 20.8142 62.3753 20.8743C62.3669 20.8772 62.3585 20.88 62.3501 20.8829C61.4583 21.2005 60.3959 21.4609 59.2497 21.6726C58.8974 21.7384 58.5368 21.7985 58.1678 21.8557C57.6422 21.9416 57.0886 22.0217 56.4987 22.0932L56.1297 22.1362C55.8893 22.1676 55.6377 22.1962 55.3805 22.222C55.291 22.2306 55.2016 22.242 55.1093 22.2477C55.0059 22.2592 54.9052 22.2706 54.8018 22.2792C54.511 22.3078 54.2091 22.3364 53.9072 22.3593L53.6472 22.3794C53.4291 22.3965 53.2082 22.4137 52.9874 22.4309C52.842 22.4423 52.677 22.4509 52.5121 22.4623C52.3639 22.4709 52.2046 22.4824 52.0396 22.491C51.7265 22.511 51.3994 22.5282 51.0723 22.5425C50.7592 22.5568 50.4461 22.5682 50.1246 22.5797C49.6801 22.5968 49.23 22.6083 48.7743 22.6169C48.5422 22.6226 48.3074 22.6254 48.0698 22.6283H48.0027C47.67 22.6312 47.3345 22.634 46.999 22.634C46.4259 22.634 35.8079 22.6054 31.1894 20.7055C31.1866 20.7055 31.1866 20.7055 31.1866 20.7055C30.9266 20.5996 30.6862 20.488 30.4682 20.3679V68.017C30.4737 68.017 30.8987 68.9097 35.2907 69.7023C38.4638 70.2746 42.621 70.5893 46.999 70.5893C49.7248 70.5893 52.4338 70.4634 54.8465 70.223C54.9052 70.2173 54.9611 70.2116 55.017 70.2059C55.1624 70.1916 55.305 70.1801 55.4448 70.1601C55.4727 70.1601 55.5007 70.1544 55.5286 70.1515C59.5936 69.7052 61.7239 69.0642 62.7387 68.5807C62.7415 68.5778 62.7415 68.5778 62.7443 68.5778C62.789 68.5549 62.8338 68.5349 62.8757 68.512C62.8813 68.5091 62.8869 68.5063 62.8925 68.5034C62.9288 68.4834 62.9652 68.4662 62.9959 68.449C63.0071 68.4433 63.0155 68.4376 63.0239 68.4319C63.0518 68.4176 63.0798 68.4004 63.1049 68.3861C63.1161 68.3775 63.1273 68.3718 63.1357 68.3661C63.1581 68.3518 63.1804 68.3375 63.2 68.326C63.2112 68.3174 63.2224 68.3088 63.2335 68.3003C63.2503 68.2917 63.2671 68.2802 63.2811 68.2688C63.2923 68.2602 63.3034 68.2516 63.3146 68.243C63.3258 68.2344 63.3398 68.223 63.351 68.2144C63.3621 68.2058 63.3705 68.1973 63.3817 68.1887C63.3901 68.1801 63.4013 68.1715 63.4097 68.1658L63.4348 68.14C63.4432 68.1314 63.4488 68.1257 63.4544 68.1171C63.4628 68.1086 63.4712 68.1 63.4768 68.0914C63.4824 68.0857 63.488 68.0799 63.4907 68.0742C63.4963 68.0685 63.5019 68.0599 63.5075 68.0513C63.5103 68.0456 63.5159 68.0399 63.5187 68.037C63.5215 68.0284 63.5243 68.0227 63.5271 68.017C63.5299 68.0113 63.5327 68.0055 63.5327 68.0027C63.5327 67.9941 63.5355 67.9827 63.5355 67.9741ZM63.3929 18.7741C63.2 18.5481 63.0211 18.2963 62.8533 18.0245C62.5486 17.5152 62.3305 16.9858 62.174 16.5166C62.1628 16.5223 62.1488 16.5309 62.1348 16.5395C62.0594 16.5881 61.9783 16.6339 61.8944 16.6825C61.8693 16.6968 61.8441 16.7083 61.8189 16.7226C61.7155 16.7798 61.6093 16.8342 61.4946 16.8857C61.4807 16.8914 61.4639 16.9 61.4499 16.9057C61.3465 16.9515 61.2374 17.0001 61.1256 17.0459C61.0921 17.0574 61.0585 17.0717 61.025 17.086C60.8936 17.1375 60.7622 17.1861 60.6196 17.2348C59.8536 17.5037 58.9338 17.7383 57.891 17.9444C57.2508 18.0731 56.5658 18.1876 55.839 18.2877C55.7942 18.2963 55.7467 18.302 55.6992 18.3077C54.9192 18.4165 54.0917 18.5052 53.2278 18.5824C52.2297 18.6711 51.1842 18.7398 50.1022 18.7827C49.0958 18.8228 48.0586 18.8457 46.999 18.8457C41.3629 18.8457 36.272 18.2448 33.3813 17.2348C33.2387 17.1861 33.1045 17.1375 32.9759 17.086C32.9423 17.0717 32.9088 17.0574 32.8752 17.0459C32.7634 17.0001 32.6544 16.9515 32.5509 16.9057C32.537 16.9 32.5202 16.8914 32.5062 16.8857C32.3916 16.8342 32.2853 16.7798 32.1819 16.7226C32.1567 16.7111 32.1316 16.6968 32.1064 16.6825C32.0226 16.6367 31.9443 16.5881 31.8688 16.5423C31.8548 16.5337 31.838 16.5252 31.8269 16.5166C31.6731 16.9858 31.455 17.5123 31.1475 18.0216C30.9826 18.2963 30.8008 18.551 30.6051 18.7799C30.9294 19.066 31.9862 19.7212 35.2935 20.3164C38.4638 20.8886 42.6238 21.2034 46.999 21.2034C48.0558 21.2034 49.0958 21.1833 50.1134 21.149C50.3427 21.1404 50.5635 21.1318 50.7844 21.1204C50.8962 21.1175 51.008 21.1118 51.1171 21.1061C51.4022 21.0946 51.6846 21.0803 51.9614 21.0603C52.1207 21.0517 52.2745 21.046 52.4254 21.0346C52.4841 21.0317 52.5373 21.026 52.5932 21.0231C52.6631 21.0202 52.733 21.0145 52.8057 21.0088C52.8308 21.0059 52.856 21.0059 52.8811 21.0031C53.1132 20.9888 53.3284 20.9716 53.5409 20.9544L53.7785 20.9344C53.7869 20.9344 53.7981 20.9344 53.8093 20.9315C54.1001 20.9115 54.3908 20.8829 54.6732 20.8543C54.8689 20.8371 55.0534 20.8171 55.2379 20.7971C55.4867 20.7713 55.7271 20.7484 55.9648 20.717L56.3003 20.6769C56.3478 20.6712 56.3953 20.6654 56.4428 20.6597C56.6078 20.6368 56.7699 20.6168 56.9293 20.5968C57.0355 20.5796 57.139 20.5653 57.2424 20.551C57.3402 20.5367 57.4381 20.5224 57.5331 20.5081C57.6729 20.488 57.8099 20.4652 57.9469 20.4451C58.014 20.4337 58.0811 20.4222 58.1454 20.4137C58.246 20.3965 58.3439 20.3793 58.4417 20.3622C58.5592 20.3421 58.6794 20.3192 58.794 20.2992L58.8499 20.2906C58.9785 20.2649 59.1099 20.242 59.2329 20.2162C59.2637 20.2105 59.2972 20.2048 59.328 20.1962C59.3783 20.1876 59.423 20.179 59.4706 20.1676C59.5432 20.1533 59.6159 20.139 59.6886 20.1218C59.7501 20.1104 59.8088 20.0961 59.8675 20.0846C59.9291 20.0703 59.9822 20.0589 60.0381 20.0474C60.0688 20.0388 60.1024 20.0331 60.1331 20.0245C60.1863 20.0131 60.2366 19.9988 60.2869 19.9873C60.5245 19.933 60.7398 19.8786 60.9439 19.8214C61.0417 19.7956 61.1284 19.7699 61.2123 19.7441C61.3241 19.7155 61.4275 19.684 61.5254 19.6526C61.5869 19.6325 61.6456 19.6154 61.7015 19.5953C61.7239 19.5896 61.7462 19.581 61.7658 19.5753C61.8189 19.5581 61.8693 19.541 61.9196 19.5209C61.9867 19.498 62.0482 19.4752 62.1125 19.4523C62.1209 19.4494 62.132 19.4465 62.1404 19.4408C62.1656 19.4322 62.188 19.4236 62.2103 19.4151C62.2746 19.3893 62.3361 19.3664 62.3948 19.3407C62.4116 19.3349 62.4284 19.3264 62.4424 19.3206C62.5095 19.292 62.5738 19.2663 62.6325 19.2377C62.6353 19.2377 62.6353 19.2348 62.6381 19.2348C63.0462 19.046 63.2699 18.8857 63.3929 18.7741ZM62.2355 70.3089C62.2215 70.3146 62.2047 70.3203 62.1908 70.3232C62.0146 70.3833 61.8329 70.4434 61.64 70.5006C61.6288 70.5035 61.6148 70.5063 61.6037 70.5092C61.4052 70.5693 61.1983 70.6265 60.983 70.6809C60.9746 70.6837 60.9662 70.6866 60.9579 70.6894C60.7426 70.7438 60.5189 70.7953 60.2869 70.8468C60.2617 70.8525 60.2366 70.8611 60.2086 70.8668C59.985 70.9155 59.7529 70.9641 59.5125 71.0099C59.4761 71.0185 59.437 71.0242 59.4007 71.0328C59.163 71.0786 58.917 71.1215 58.6654 71.1644C58.6207 71.173 58.5759 71.1787 58.5312 71.1873C58.2768 71.2302 58.0168 71.2703 57.7484 71.3103C57.7009 71.3161 57.6562 71.3218 57.6086 71.3304C57.3347 71.3704 57.0523 71.4076 56.7615 71.4448C56.7224 71.4505 56.6833 71.4563 56.6441 71.4591C56.3534 71.4963 56.057 71.5307 55.7495 71.565C55.7327 71.5679 55.716 71.5707 55.6992 71.5707C55.6908 71.5736 55.6824 71.5736 55.6768 71.5736C55.5091 71.5965 55.3329 71.6136 55.1512 71.6308C52.6547 71.8855 49.8338 72.0199 46.999 72.0199H46.7893C46.7474 72.0199 46.6971 72.0199 46.644 72.0171H46.5853C46.5238 72.0171 46.4622 72.0171 46.3896 72.0142C46.3868 72.0142 46.384 72.0142 46.384 72.0142C46.3141 72.0142 46.2386 72.0142 46.1575 72.0114H46.0764C45.9926 72.0085 45.9087 72.0085 45.8164 72.0056H45.7969C45.7074 72.0056 45.6124 72.0028 45.5173 71.9999C45.4782 71.9999 45.4418 71.9999 45.4027 71.997C45.302 71.9942 45.2014 71.9942 45.0924 71.9913C45.0784 71.9885 45.0644 71.9885 45.0504 71.9885C44.9442 71.9856 44.8324 71.9827 44.7177 71.9799C44.6758 71.977 44.6339 71.977 44.5891 71.9742C44.4829 71.9713 44.3739 71.9684 44.2593 71.9656C44.2229 71.9627 44.1866 71.9627 44.1502 71.9599C44.0356 71.957 43.9182 71.9513 43.8008 71.9484C43.7504 71.9455 43.7029 71.9427 43.6554 71.9427C43.5352 71.937 43.4122 71.9312 43.2892 71.9255C43.2444 71.9255 43.2025 71.9227 43.1578 71.9198C43.0319 71.9141 42.9061 71.9084 42.7775 71.9026L42.6182 71.894C42.4896 71.8883 42.361 71.8797 42.2296 71.874C42.1765 71.8712 42.1234 71.8683 42.0702 71.8654C41.9388 71.8568 41.8074 71.8483 41.6732 71.8397C41.6145 71.8368 41.5558 71.834 41.4971 71.8282C41.3573 71.8196 41.2148 71.8111 41.0722 71.8025C41.0274 71.7996 40.9799 71.7939 40.9352 71.791C40.7926 71.7825 40.65 71.771 40.5047 71.7596C40.4431 71.7567 40.3816 71.751 40.3201 71.7453C40.1748 71.7367 40.0294 71.7224 39.884 71.7109C39.8337 71.7081 39.7834 71.7023 39.733 71.6995C39.5877 71.6852 39.4395 71.6737 39.2913 71.6594C39.2298 71.6537 39.1683 71.648 39.1068 71.6423C38.953 71.6279 38.7993 71.6136 38.6455 71.5965C38.6036 71.5936 38.5617 71.5907 38.5225 71.585C38.366 71.5679 38.2094 71.5536 38.0528 71.5364C37.9941 71.5278 37.9382 71.5221 37.8795 71.5164C37.7229 71.4992 37.5664 71.4792 37.4098 71.462C37.3679 71.4563 37.326 71.4505 37.284 71.4448C37.1303 71.4277 36.9765 71.4076 36.8227 71.3847C36.764 71.379 36.7081 71.3704 36.6494 71.3618C36.4901 71.3418 36.3279 71.3189 36.1685 71.296C36.1378 71.2903 36.107 71.2846 36.0791 71.2817C35.9197 71.2588 35.7632 71.2331 35.6066 71.2073C35.5535 71.1987 35.5004 71.1902 35.4473 71.1816C35.2851 71.1558 35.1258 71.1272 34.9664 71.0986C34.944 71.0957 34.9217 71.0929 34.8993 71.0872C34.7428 71.0585 34.5862 71.0299 34.4324 70.9985C34.3849 70.9899 34.3346 70.9813 34.2871 70.9698C34.1277 70.9384 33.9711 70.9069 33.8174 70.8726C33.8034 70.8697 33.7866 70.8668 33.7699 70.8611C33.6189 70.8296 33.4707 70.7924 33.3225 70.7581C33.2806 70.7467 33.2359 70.7381 33.1939 70.7266C33.0402 70.6894 32.8892 70.6494 32.741 70.6093C32.7355 70.6093 32.7271 70.6065 32.7187 70.6036C32.5761 70.5635 32.4363 70.5235 32.2965 70.4806C32.2602 70.4691 32.221 70.4577 32.1819 70.4462C32.0421 70.4033 31.9023 70.3575 31.7681 70.3117C31.7681 70.3117 31.7681 70.3117 31.7654 70.3117C32.0896 71.2216 32.1707 71.9541 32.1707 71.9656C32.1735 71.9913 32.1763 72.0171 32.1763 72.0428C32.4139 72.8898 37.7146 74.4978 46.999 74.4978C56.2863 74.4978 61.5869 72.8898 61.8273 72.0285C61.8273 71.9999 61.8273 71.9827 61.8301 71.9541C61.8441 71.8454 61.9363 71.1558 62.2355 70.3089ZM61.8189 14.9572C61.8189 14.9572 61.8189 14.9543 61.8189 14.9572C61.5198 14.0873 56.2248 12.5022 46.999 12.5022C37.7509 12.5022 32.4531 14.0959 32.1791 14.96C32.1959 14.9915 32.3245 15.2118 32.9423 15.518C32.9451 15.518 32.9451 15.518 32.9479 15.5208C32.9955 15.5437 33.0458 15.5666 33.0989 15.5895C33.1101 15.5952 33.1185 15.601 33.1296 15.6067C33.1772 15.6267 33.2275 15.6496 33.2778 15.6696C33.2974 15.6782 33.317 15.6868 33.3365 15.6954C33.3896 15.7154 33.4456 15.7383 33.5015 15.7612C33.5266 15.7698 33.5462 15.7784 33.5714 15.7869C33.5965 15.7955 33.6245 15.807 33.6524 15.8156C36.9933 15.0602 41.8382 14.6253 46.999 14.6253C52.1626 14.6253 57.0048 15.0602 60.3484 15.8156C60.3736 15.807 60.3987 15.7984 60.4239 15.7898C60.4518 15.7784 60.477 15.7698 60.5022 15.7583C60.5525 15.7383 60.6028 15.7183 60.6503 15.7011C60.6811 15.6868 60.7062 15.6754 60.7342 15.6639C60.7761 15.6467 60.8153 15.6296 60.8516 15.6124C60.8796 15.601 60.9047 15.5895 60.9299 15.5781C60.9662 15.5609 60.9998 15.5466 61.0305 15.5294C61.0557 15.518 61.0781 15.5065 61.1004 15.4951C61.1312 15.4808 61.1591 15.4636 61.1871 15.4493C61.2067 15.4379 61.2262 15.4264 61.2458 15.4178C61.2738 15.4035 61.2961 15.3892 61.3213 15.3749C61.3381 15.3635 61.3548 15.3549 61.3716 15.3434C61.394 15.3291 61.4164 15.3177 61.4359 15.3034C61.4499 15.2948 61.4639 15.2834 61.4779 15.2748C61.4974 15.2633 61.5142 15.249 61.531 15.2376C61.545 15.229 61.5561 15.2204 61.5673 15.2118C61.5841 15.2004 61.5981 15.1861 61.6148 15.1746C61.6232 15.1689 61.6316 15.1603 61.64 15.1546C61.6596 15.1374 61.6791 15.1203 61.6959 15.1031C61.7015 15.1002 61.7043 15.0974 61.7071 15.0945L61.7574 15.043C61.763 15.0344 61.7686 15.0287 61.7742 15.0201C61.7798 15.0144 61.7826 15.0115 61.7854 15.0058C61.791 15.0001 61.7938 14.9944 61.7994 14.9886C61.8022 14.9858 61.805 14.9801 61.8077 14.9772C61.8105 14.9743 61.8105 14.9686 61.8133 14.9658C61.8161 14.9629 61.8161 14.96 61.8189 14.9572ZM56.3058 16.7712C56.5267 16.7369 56.7392 16.7026 56.9489 16.6654C54.0861 16.2734 50.6278 16.0559 46.999 16.0559C43.373 16.0559 39.9148 16.2734 37.0492 16.6654C37.2589 16.7026 37.4741 16.7369 37.695 16.7712C37.7509 16.7798 37.8096 16.7884 37.8683 16.797C38.0668 16.8285 38.2653 16.8571 38.4694 16.8828C38.5141 16.8885 38.5589 16.8971 38.6064 16.9028C38.8468 16.9343 39.0928 16.9658 39.3416 16.9944C39.4004 17.003 39.4591 17.0087 39.5178 17.0144C39.7302 17.0402 39.9427 17.0631 40.1608 17.0831C40.2167 17.0888 40.2726 17.0946 40.3285 17.1003C40.5885 17.126 40.8541 17.1518 41.1197 17.1747C41.1756 17.1775 41.2315 17.1833 41.2874 17.189C41.5139 17.2061 41.7431 17.2233 41.9724 17.2405C42.0395 17.2433 42.1038 17.2491 42.1681 17.2548C42.4449 17.272 42.7244 17.2891 43.004 17.3063C43.0515 17.3092 43.099 17.3092 43.1466 17.312C43.3898 17.3263 43.6358 17.3378 43.8818 17.3492C43.9545 17.3521 44.03 17.3549 44.1027 17.3578C44.3906 17.3692 44.6814 17.3778 44.9722 17.3864C45.0029 17.3864 45.0337 17.3893 45.0644 17.3893C45.33 17.395 45.5984 17.4007 45.8668 17.4036C45.945 17.4064 46.0233 17.4064 46.1016 17.4093C46.4007 17.4122 46.6999 17.415 46.999 17.415C47.301 17.415 47.6001 17.4122 47.8992 17.4093C47.9775 17.4064 48.0558 17.4064 48.1341 17.4036C48.4025 17.4007 48.6708 17.395 48.9364 17.3893C48.9672 17.3893 48.9979 17.3864 49.0259 17.3864C49.3194 17.3778 49.6102 17.3692 49.8981 17.3578C49.9708 17.3549 50.0435 17.3521 50.119 17.3492C50.365 17.3378 50.6082 17.3263 50.8515 17.312C50.899 17.3092 50.9493 17.3092 50.9968 17.3063C51.2764 17.2891 51.556 17.272 51.83 17.2548C51.8971 17.2491 51.9614 17.2433 52.0285 17.2405C52.2577 17.2233 52.4869 17.2061 52.7106 17.189C52.7665 17.1833 52.8252 17.1775 52.8811 17.1747C53.1467 17.1518 53.4123 17.126 53.6723 17.1003C53.7282 17.0946 53.7841 17.0888 53.8401 17.0831C54.0553 17.0631 54.2706 17.0402 54.4803 17.0144C54.539 17.0087 54.6005 17.003 54.6592 16.9944C54.908 16.9658 55.154 16.9343 55.3945 16.9028C55.442 16.8971 55.4867 16.8885 55.5314 16.8828C55.7355 16.8571 55.934 16.8285 56.1297 16.797C56.1884 16.7884 56.2471 16.7798 56.3058 16.7712Z" fill="#111111"/>
<path d="M62.8527 18.0245C63.0204 18.2963 63.1993 18.5481 63.3923 18.7741C63.2692 18.8857 63.0456 19.046 62.6374 19.2348C62.6346 19.2348 62.6346 19.2377 62.6318 19.2377C62.5731 19.2663 62.5088 19.292 62.4417 19.3206C62.4277 19.3264 62.411 19.3349 62.3942 19.3407C62.3355 19.3664 62.274 19.3893 62.2097 19.4151C62.1873 19.4236 62.1649 19.4322 62.1398 19.4408C62.1314 19.4465 62.1202 19.4494 62.1118 19.4523C62.0475 19.4751 61.986 19.498 61.9189 19.5209C61.8686 19.541 61.8183 19.5581 61.7652 19.5753C61.7456 19.581 61.7232 19.5896 61.7009 19.5953C61.6449 19.6154 61.5862 19.6325 61.5247 19.6525C61.4269 19.684 61.3234 19.7155 61.2116 19.7441C61.1277 19.7699 61.0411 19.7956 60.9432 19.8214C60.7391 19.8786 60.5239 19.933 60.2862 19.9873C60.2359 19.9988 60.1856 20.0131 60.1325 20.0245C60.1017 20.0331 60.0682 20.0388 60.0374 20.0474C59.9815 20.0589 59.9284 20.0703 59.8669 20.0846C59.8082 20.0961 59.7495 20.1104 59.688 20.1218C59.6153 20.139 59.5426 20.1533 59.4699 20.1676C59.4224 20.179 59.3777 20.1876 59.3273 20.1962C59.2966 20.2048 59.263 20.2105 59.2323 20.2162C59.1093 20.242 58.9779 20.2649 58.8493 20.2906L58.7934 20.2992C58.6787 20.3192 58.5585 20.3421 58.4411 20.3622C58.3432 20.3793 58.2454 20.3965 58.1448 20.4137C58.0805 20.4222 58.0134 20.4337 57.9463 20.4451C57.8093 20.4652 57.6723 20.488 57.5325 20.5081C57.4374 20.5224 57.3396 20.5367 57.2417 20.551C57.1383 20.5653 57.0349 20.5796 56.9286 20.5968C56.7693 20.6168 56.6071 20.6368 56.4422 20.6597C56.3947 20.6654 56.3471 20.6712 56.2996 20.6769L55.9641 20.717C55.7265 20.7484 55.4861 20.7713 55.2372 20.7971C55.0527 20.8171 54.8682 20.8371 54.6725 20.8543C54.3902 20.8829 54.0994 20.9115 53.8087 20.9315C53.7975 20.9344 53.7863 20.9344 53.7779 20.9344L53.5403 20.9544C53.3278 20.9716 53.1125 20.9888 52.8805 21.0031C52.8553 21.0059 52.8302 21.0059 52.805 21.0088C52.7323 21.0145 52.6624 21.0202 52.5925 21.0231C52.5366 21.026 52.4835 21.0317 52.4248 21.0346C52.2738 21.046 52.1201 21.0517 51.9607 21.0603C51.6839 21.0803 51.4016 21.0946 51.1164 21.1061C51.0074 21.1118 50.8956 21.1175 50.7837 21.1204C50.5629 21.1318 50.342 21.1404 50.1128 21.149C49.0951 21.1833 48.0551 21.2034 46.9984 21.2034C42.6231 21.2034 38.4632 20.8886 35.2929 20.3164C31.9856 19.7212 30.9288 19.066 30.6045 18.7799C30.8002 18.551 30.9819 18.2963 31.1469 18.0216C31.4544 17.5123 31.6724 16.9858 31.8262 16.5166C31.8374 16.5252 31.8542 16.5337 31.8681 16.5423C31.9436 16.5881 32.0219 16.6367 32.1058 16.6825C32.1309 16.6968 32.1561 16.7111 32.1813 16.7226C32.2847 16.7798 32.3909 16.8342 32.5056 16.8857C32.5195 16.8914 32.5363 16.9 32.5503 16.9057C32.6537 16.9515 32.7628 17.0001 32.8746 17.0459C32.9081 17.0574 32.9417 17.0717 32.9752 17.086C33.1038 17.1375 33.238 17.1861 33.3806 17.2348C36.2713 18.2448 41.3623 18.8457 46.9984 18.8457C48.0579 18.8457 49.0951 18.8228 50.1016 18.7827C51.1835 18.7398 52.2291 18.6711 53.2272 18.5824C54.091 18.5052 54.9185 18.4165 55.6985 18.3077C55.7461 18.302 55.7936 18.2963 55.8383 18.2877C56.5652 18.1876 57.2501 18.0731 57.8903 17.9444C58.9331 17.7383 59.8529 17.5037 60.6189 17.2348C60.7615 17.1861 60.8929 17.1375 61.0243 17.086C61.0579 17.0717 61.0914 17.0574 61.125 17.0459C61.2368 17.0001 61.3458 16.9515 61.4493 16.9057C61.4632 16.9 61.48 16.8914 61.494 16.8857C61.6086 16.8342 61.7148 16.7798 61.8183 16.7226C61.8434 16.7083 61.8686 16.6968 61.8938 16.6825C61.9776 16.6339 62.0587 16.5881 62.1342 16.5395C62.1482 16.5309 62.1622 16.5223 62.1733 16.5166C62.3299 16.9858 62.548 17.5152 62.8527 18.0245Z" fill="#B5B5B6"/>
<path d="M62.191 70.3232C62.205 70.3203 62.2218 70.3146 62.2358 70.3089C61.9366 71.1558 61.8444 71.8454 61.8304 71.9541C61.8276 71.9828 61.8276 71.9999 61.8276 72.0285C61.5872 72.8898 56.2865 74.4978 46.9993 74.4978C37.7148 74.4978 32.4142 72.8898 32.1766 72.0428C32.1766 72.0171 32.1738 71.9913 32.171 71.9656C32.171 71.9541 32.0899 71.2217 31.7656 70.3118C31.7684 70.3118 31.7684 70.3118 31.7684 70.3118C31.9026 70.3575 32.0424 70.4033 32.1822 70.4462C32.2213 70.4577 32.2605 70.4691 32.2968 70.4806C32.4366 70.5235 32.5764 70.5636 32.719 70.6036C32.7273 70.6065 32.7357 70.6093 32.7413 70.6093C32.8895 70.6494 33.0405 70.6895 33.1942 70.7267C33.2362 70.7381 33.2809 70.7467 33.3228 70.7581C33.471 70.7925 33.6192 70.8297 33.7701 70.8611C33.7869 70.8669 33.8037 70.8697 33.8177 70.8726C33.9714 70.9069 34.128 70.9384 34.2873 70.9699C34.3349 70.9813 34.3852 70.9899 34.4327 70.9985C34.5865 71.0299 34.743 71.0586 34.8996 71.0872C34.9219 71.0929 34.9443 71.0958 34.9667 71.0986C35.126 71.1272 35.2854 71.1558 35.4475 71.1816C35.5007 71.1902 35.5538 71.1988 35.6069 71.2073C35.7634 71.2331 35.92 71.2588 36.0794 71.2817C36.1073 71.2846 36.1381 71.2903 36.1688 71.296C36.3282 71.3189 36.4903 71.3418 36.6497 71.3619C36.7084 71.3704 36.7643 71.379 36.823 71.3847C36.9768 71.4076 37.1305 71.4277 37.2843 71.4448C37.3262 71.4506 37.3682 71.4563 37.4101 71.462C37.5667 71.4792 37.7232 71.4992 37.8798 71.5164C37.9385 71.5221 37.9944 71.5278 38.0531 71.5364C38.2097 71.5536 38.3662 71.5679 38.5228 71.585C38.5619 71.5908 38.6039 71.5936 38.6458 71.5965C38.7996 71.6137 38.9533 71.628 39.1071 71.6423C39.1686 71.648 39.2301 71.6537 39.2916 71.6594C39.4398 71.6737 39.5879 71.6852 39.7333 71.6995C39.7836 71.7024 39.834 71.7081 39.8843 71.7109C40.0297 71.7224 40.175 71.7367 40.3204 71.7453C40.3819 71.751 40.4434 71.7567 40.5049 71.7596C40.6503 71.771 40.7929 71.7825 40.9355 71.7911C40.9802 71.7939 41.0277 71.7996 41.0724 71.8025C41.215 71.8111 41.3576 71.8197 41.4974 71.8282C41.5561 71.834 41.6148 71.8368 41.6735 71.8397C41.8077 71.8483 41.9391 71.8569 42.0705 71.8654C42.1236 71.8683 42.1767 71.8712 42.2299 71.874C42.3613 71.8798 42.4899 71.8883 42.6185 71.8941L42.7778 71.9026C42.9064 71.9084 43.0322 71.9141 43.158 71.9198C43.2028 71.9227 43.2447 71.9255 43.2894 71.9255C43.4124 71.9313 43.5354 71.937 43.6557 71.9427C43.7032 71.9427 43.7507 71.9456 43.801 71.9484C43.9185 71.9513 44.0359 71.957 44.1505 71.9599C44.1868 71.9627 44.2232 71.9627 44.2595 71.9656C44.3742 71.9685 44.4832 71.9713 44.5894 71.9742C44.6341 71.977 44.6761 71.977 44.718 71.9799C44.8326 71.9828 44.9445 71.9856 45.0507 71.9885C45.0647 71.9885 45.0787 71.9885 45.0926 71.9913C45.2017 71.9942 45.3023 71.9942 45.403 71.9971C45.4421 71.9999 45.4784 71.9999 45.5176 71.9999C45.6126 72.0028 45.7077 72.0057 45.7972 72.0057H45.8167C45.909 72.0085 45.9928 72.0085 46.0767 72.0114H46.1578C46.2389 72.0142 46.3144 72.0142 46.3842 72.0142C46.3842 72.0142 46.387 72.0142 46.3898 72.0142C46.4625 72.0171 46.524 72.0171 46.5855 72.0171H46.6442C46.6974 72.02 46.7477 72.02 46.7896 72.02H46.9993C49.8341 72.02 52.655 71.8855 55.1515 71.6308C55.3332 71.6136 55.5093 71.5965 55.6771 71.5736C55.6827 71.5736 55.6911 71.5736 55.6995 71.5707C55.7162 71.5707 55.733 71.5679 55.7498 71.565C56.0573 71.5307 56.3536 71.4963 56.6444 71.4591C56.6835 71.4563 56.7227 71.4506 56.7618 71.4448C57.0526 71.4076 57.3349 71.3704 57.6089 71.3304C57.6564 71.3218 57.7012 71.3161 57.7487 71.3104C58.0171 71.2703 58.2771 71.2302 58.5315 71.1873C58.5762 71.1787 58.6209 71.173 58.6657 71.1644C58.9173 71.1215 59.1633 71.0786 59.4009 71.0328C59.4373 71.0242 59.4764 71.0185 59.5128 71.0099C59.7532 70.9641 59.9852 70.9155 60.2089 70.8669C60.2368 70.8611 60.262 70.8525 60.2872 70.8468C60.5192 70.7953 60.7429 70.7438 60.9581 70.6895C60.9665 70.6866 60.9749 70.6837 60.9833 70.6809C61.1986 70.6265 61.4054 70.5693 61.6039 70.5092C61.6151 70.5063 61.6291 70.5035 61.6403 70.5006C61.8332 70.4434 62.0149 70.3833 62.191 70.3232Z" fill="#B5B5B6"/>
<path d="M61.8213 14.9543C61.8185 14.9543 61.8185 14.9572 61.8213 14.9543C61.8157 14.96 61.8157 14.9629 61.8129 14.9657C61.8101 14.9686 61.8101 14.9743 61.8073 14.9772C61.8046 14.98 61.8018 14.9858 61.799 14.9886C61.7934 14.9944 61.7906 15.0001 61.785 15.0058C61.7822 15.0115 61.7794 15.0144 61.7738 15.0201C61.7682 15.0287 61.7626 15.0344 61.757 15.043L61.7067 15.0945C61.7039 15.0974 61.7011 15.1002 61.6955 15.1031C61.6787 15.1203 61.6592 15.1374 61.6396 15.1546C61.6312 15.1603 61.6228 15.1689 61.6144 15.1746C61.5977 15.1861 61.5837 15.2004 61.5669 15.2118C61.5557 15.2204 61.5446 15.229 61.5306 15.2376C61.5138 15.249 61.497 15.2633 61.4775 15.2748C61.4635 15.2833 61.4495 15.2948 61.4355 15.3034C61.416 15.3177 61.3936 15.3291 61.3712 15.3434C61.3544 15.3549 61.3377 15.3635 61.3209 15.3749C61.2957 15.3892 61.2734 15.4035 61.2454 15.4178C61.2258 15.4264 61.2063 15.4379 61.1867 15.4493C61.1587 15.4636 61.1308 15.4808 61.1 15.4951C61.0777 15.5065 61.0553 15.518 61.0301 15.5294C60.9994 15.5466 60.9658 15.5609 60.9295 15.5781C60.9043 15.5895 60.8792 15.6009 60.8512 15.6124C60.8149 15.6296 60.7757 15.6467 60.7338 15.6639C60.7058 15.6753 60.6807 15.6868 60.6499 15.7011C60.6024 15.7183 60.5521 15.7383 60.5018 15.7583C60.4766 15.7698 60.4514 15.7783 60.4235 15.7898C60.3983 15.7984 60.3732 15.807 60.348 15.8155C57.0044 15.0602 52.1622 14.6252 46.9986 14.6252C41.8378 14.6252 36.9929 15.0602 33.652 15.8155C33.6241 15.807 33.5961 15.7955 33.571 15.7869C33.5458 15.7783 33.5262 15.7698 33.5011 15.7612C33.4452 15.7383 33.3892 15.7154 33.3361 15.6954C33.3166 15.6868 33.297 15.6782 33.2774 15.6696C33.2271 15.6496 33.1768 15.6267 33.1292 15.6067C33.1181 15.6009 33.1097 15.5952 33.0985 15.5895C33.0454 15.5666 32.9951 15.5437 32.9475 15.5208C32.9447 15.518 32.9447 15.518 32.9419 15.518C32.3241 15.2118 32.1955 14.9915 32.1787 14.96C32.4527 14.0959 37.7505 12.5022 46.9986 12.5022C56.2244 12.5022 61.5194 14.0873 61.8213 14.9543Z" fill="#595757"/>
<path d="M56.9485 16.6654C56.7388 16.7026 56.5263 16.7369 56.3055 16.7712C56.2468 16.7798 56.1881 16.7884 56.1294 16.797C55.9337 16.8285 55.7352 16.8571 55.5311 16.8828C55.4864 16.8885 55.4416 16.8971 55.3941 16.9029C55.1537 16.9343 54.9076 16.9658 54.6588 16.9944C54.6001 17.003 54.5386 17.0087 54.4799 17.0144C54.2702 17.0402 54.055 17.0631 53.8397 17.0831C53.7838 17.0888 53.7279 17.0946 53.672 17.1003C53.412 17.126 53.1464 17.1518 52.8808 17.1747C52.8249 17.1775 52.7662 17.1833 52.7102 17.189C52.4866 17.2061 52.2573 17.2233 52.0281 17.2405C51.961 17.2433 51.8967 17.2491 51.8296 17.2548C51.5556 17.272 51.2761 17.2891 50.9965 17.3063C50.949 17.3092 50.8986 17.3092 50.8511 17.312C50.6079 17.3263 50.3647 17.3378 50.1186 17.3492C50.0432 17.3521 49.9705 17.3549 49.8978 17.3578C49.6098 17.3692 49.3191 17.3778 49.0255 17.3864C48.9976 17.3864 48.9668 17.3893 48.9361 17.3893C48.6705 17.395 48.4021 17.4007 48.1337 17.4036C48.0554 17.4064 47.9771 17.4064 47.8989 17.4093C47.5997 17.4122 47.3006 17.415 46.9987 17.415C46.6995 17.415 46.4004 17.4122 46.1012 17.4093C46.023 17.4064 45.9447 17.4064 45.8664 17.4036C45.598 17.4007 45.3296 17.395 45.064 17.3893C45.0333 17.3893 45.0025 17.3864 44.9718 17.3864C44.681 17.3778 44.3903 17.3692 44.1023 17.3578C44.0296 17.3549 43.9542 17.3521 43.8815 17.3492C43.6355 17.3378 43.3894 17.3263 43.1462 17.312C43.0987 17.3092 43.0512 17.3092 43.0036 17.3063C42.7241 17.2891 42.4445 17.272 42.1677 17.2548C42.1034 17.2491 42.0391 17.2433 41.972 17.2405C41.7428 17.2233 41.5135 17.2061 41.2871 17.189C41.2312 17.1833 41.1753 17.1775 41.1193 17.1747C40.8538 17.1518 40.5882 17.126 40.3282 17.1003C40.2722 17.0946 40.2163 17.0888 40.1604 17.0831C39.9424 17.0631 39.7299 17.0402 39.5174 17.0144C39.4587 17.0087 39.4 17.003 39.3413 16.9944C39.0925 16.9658 38.8465 16.9343 38.606 16.9029C38.5585 16.8971 38.5138 16.8885 38.469 16.8828C38.2649 16.8571 38.0665 16.8285 37.868 16.797C37.8093 16.7884 37.7505 16.7798 37.6946 16.7712C37.4738 16.7369 37.2585 16.7026 37.0488 16.6654C39.9144 16.2734 43.3727 16.0559 46.9987 16.0559C50.6275 16.0559 54.0857 16.2734 56.9485 16.6654Z" fill="#898989"/>
<path d="M63.5351 67.9741C63.5351 67.9826 63.5323 67.9941 63.5323 68.0027C63.5323 68.0055 63.5295 68.0113 63.5267 68.017C63.5239 68.0227 63.5211 68.0284 63.5183 68.037C63.5155 68.0399 63.5099 68.0456 63.5071 68.0513C63.5016 68.0599 63.496 68.0685 63.4904 68.0742C63.4876 68.0799 63.482 68.0856 63.4764 68.0914C63.4708 68.1 63.4624 68.1085 63.454 68.1171C63.4484 68.1257 63.4428 68.1314 63.4345 68.14L63.4093 68.1658C63.4009 68.1715 63.3897 68.1801 63.3813 68.1887C63.3702 68.1972 63.3618 68.2058 63.3506 68.2144C63.3394 68.223 63.3254 68.2344 63.3142 68.243C63.3031 68.2516 63.2919 68.2602 63.2807 68.2688C63.2667 68.2802 63.2499 68.2917 63.2332 68.3002C63.222 68.3088 63.2108 68.3174 63.1996 68.326C63.1801 68.3374 63.1577 68.3518 63.1353 68.3661C63.1269 68.3718 63.1158 68.3775 63.1046 68.3861C63.0794 68.4004 63.0515 68.4176 63.0235 68.4319C63.0151 68.4376 63.0067 68.4433 62.9955 68.449C62.9648 68.4662 62.9284 68.4834 62.8921 68.5034C62.8865 68.5063 62.8809 68.5091 62.8753 68.512C62.8334 68.5349 62.7887 68.5549 62.7439 68.5778C62.7411 68.5778 62.7411 68.5778 62.7383 68.5807C61.7235 69.0642 59.5932 69.7051 55.5283 70.1515C55.5003 70.1544 55.4724 70.1601 55.4444 70.1601C54.4715 66.0169 53.4231 58.1713 56.9457 51.0323C62.3274 40.1251 63.468 30.5941 59.2493 21.6726C60.3956 21.4609 61.4579 21.2005 62.3497 20.8829C62.3581 20.88 62.3665 20.8772 62.3749 20.8743C62.5454 20.8142 62.7048 20.757 62.8474 20.6969C62.9508 20.6569 63.0459 20.6168 63.1213 20.5825C63.2583 20.5195 63.3897 20.4566 63.5071 20.3965C63.5155 20.3908 63.5239 20.3879 63.5323 20.3822L63.5351 67.9741Z" fill="#BA1414"/>
<path d="M56.9457 51.0323C53.4231 58.1713 54.4715 66.0169 55.4444 70.1601C55.3046 70.1801 55.162 70.1916 55.0167 70.2059C54.9608 70.2116 54.9048 70.2173 54.8461 70.223C53.5266 66.263 51.6842 58.3372 54.6812 50.7433C58.9893 39.839 59.4814 30.5369 55.1089 22.2477C55.2012 22.242 55.2907 22.2306 55.3801 22.222C55.6373 22.1962 55.8889 22.1676 56.1294 22.1361L56.4984 22.0932C57.0883 22.0217 57.6418 21.9416 58.1674 21.8557C58.5364 21.7985 58.8971 21.7384 59.2493 21.6726C63.468 30.5941 62.3274 40.1251 56.9457 51.0323Z" fill="white"/>
<path d="M54.8461 70.223C52.4334 70.4634 49.7244 70.5893 46.9986 70.5893C42.6206 70.5893 38.4634 70.2745 35.2903 69.7023C30.8983 68.9097 30.4734 68.017 30.4678 68.017V20.3679C30.6858 20.488 30.9263 20.5996 31.1863 20.7055C31.1863 20.7055 31.1863 20.7055 31.1891 20.7055C35.8075 22.6054 46.4255 22.634 46.9986 22.634C47.3341 22.634 47.6696 22.6311 48.0023 22.6283H48.0694C48.307 22.6254 48.5419 22.6226 48.7739 22.6168C49.2296 22.6083 49.6797 22.5968 50.1242 22.5796C50.4457 22.5682 50.7588 22.5567 51.0719 22.5424C51.399 22.5281 51.7261 22.511 52.0393 22.4909C52.2042 22.4824 52.3636 22.4709 52.5117 22.4623C52.6767 22.4509 52.8416 22.4423 52.987 22.4309C53.2079 22.4137 53.4287 22.3965 53.6468 22.3793L53.9068 22.3593C54.2087 22.3364 54.5106 22.3078 54.8014 22.2792C54.9048 22.2706 55.0055 22.2592 55.1089 22.2477C59.4814 30.5369 58.9893 39.839 54.6812 50.7433C51.6842 58.3372 53.5266 66.263 54.8461 70.223Z" fill="#BA1414"/>
<path d="M38.1338 57.5704C38.1338 57.1813 38.2708 56.8837 38.542 56.6748C38.7572 56.506 39.0172 56.423 39.3247 56.423C39.8755 56.423 40.5017 56.6119 41.2062 56.9896C41.8129 57.3215 42.3581 57.7335 42.8389 58.2257C43.152 58.5518 43.3058 58.8065 43.3058 58.9925C43.3058 59.1155 43.2471 59.2271 43.1269 59.333C43.043 59.4074 42.9452 59.4474 42.8389 59.4474C42.6404 59.4474 42.414 59.27 42.1596 58.9152C41.7961 58.4145 41.3991 58.0196 40.9686 57.7221C40.3452 57.2871 39.8168 57.0697 39.3863 57.0697C39.2101 57.0697 39.0787 57.1097 38.9949 57.187C38.911 57.2643 38.8663 57.3816 38.8663 57.5389C38.8663 57.8594 39.0927 58.3115 39.5456 58.8981C40.0572 59.5647 40.7505 60.2715 41.6312 61.0125C42.7495 61.9596 43.8482 62.6778 44.9329 63.1728C46.054 63.6793 47.0129 63.9339 47.8068 63.9339C48.1871 63.9339 48.5114 63.8223 48.7769 63.5934C49.0789 63.3445 49.2271 63.0383 49.2271 62.6778C49.2271 62.0512 48.7518 61.2615 47.7985 60.3087C47.5105 60.0254 47.0884 59.6792 46.5404 59.2729C46.1881 59.0068 45.9393 58.8351 45.7912 58.7579C45.6262 58.672 45.5451 58.569 45.5451 58.4517C45.5451 58.3229 45.6038 58.26 45.7241 58.26C45.9785 58.26 46.5516 58.5862 47.4434 59.2357C48.1871 59.7765 48.7937 60.3716 49.2634 61.0211C49.7918 61.7536 50.0546 62.4432 50.0546 63.0927C50.0546 63.7708 49.7582 64.2973 49.16 64.6693C48.7797 64.9068 48.3464 65.027 47.8572 65.027C46.6327 65.027 45.0866 64.4347 43.2191 63.2501C41.6312 62.24 40.3508 61.1756 39.3807 60.054C38.5503 59.0898 38.1338 58.26 38.1338 57.5704Z" fill="white"/>
<path d="M43.5879 54.6004C43.5879 54.1254 43.8703 53.8851 44.4378 53.8851C45.1926 53.8851 46.1487 54.2427 47.3062 54.9552C48.5586 55.7335 49.1876 56.486 49.1876 57.2099C49.1876 57.5475 49.0339 57.7936 48.7292 57.951C48.5754 58.0311 48.3909 58.074 48.1756 58.074C47.4487 58.074 46.6603 57.8193 45.8105 57.3072C45.0221 56.8322 44.4098 56.2714 43.9737 55.6276C43.7137 55.2499 43.5879 54.9066 43.5879 54.6004ZM46.8029 55.5046C46.6883 55.6505 46.6016 55.722 46.5401 55.722C46.4954 55.722 46.3696 55.6305 46.1655 55.4445C45.5924 54.9209 45.1311 54.6605 44.7789 54.6605C44.7341 54.6605 44.6894 54.6748 44.6419 54.7034C44.558 54.7492 44.5133 54.8236 44.5133 54.9209C44.5133 55.1068 44.6894 55.3787 45.0416 55.7392C45.4945 56.2027 45.9642 56.5575 46.4451 56.8007C46.9958 57.084 47.4515 57.2271 47.815 57.2271C47.91 57.2271 47.9967 57.2013 48.0694 57.1498C48.1728 57.0754 48.2231 56.9781 48.2231 56.8637C48.2231 56.5861 48.019 56.2857 47.6109 55.9681C47.4403 55.8279 47.2642 55.7163 47.0825 55.6276C46.9036 55.5418 46.8085 55.4988 46.8029 55.5046Z" fill="white"/>
<path d="M46.2501 52.3972C46.6919 52.5717 47.0497 52.7034 47.3209 52.7892C47.5921 52.875 47.7822 52.9208 47.8912 52.9208C48.0338 52.9208 48.1037 52.8521 48.1037 52.7119C48.1037 52.5031 47.9108 52.2341 47.525 51.9022C47.3377 51.7448 46.9994 51.5131 46.5129 51.2069C46.32 51.0839 46.225 50.958 46.225 50.8235C46.225 50.6718 46.2949 50.5974 46.4375 50.5974C46.6807 50.5974 47.1755 50.8836 47.9192 51.4587C48.6964 52.0567 49.085 52.6118 49.085 53.1211C49.085 53.3414 48.9955 53.5217 48.8138 53.6619C48.6824 53.7592 48.5258 53.8107 48.3385 53.8107C48.0198 53.8107 47.5809 53.7105 47.019 53.516C46.457 53.3185 45.7749 53.0267 44.9697 52.6375C42.9233 51.639 41.2347 50.6203 39.9067 49.5817C38.8416 48.7519 38.3076 48.0623 38.3076 47.5187C38.3076 47.3441 38.3719 47.2011 38.5033 47.0924C38.6347 46.975 38.7829 46.9178 38.9534 46.9178C39.7474 46.9178 41.0698 47.6446 42.9177 49.0953C43.7396 49.7448 44.5616 50.523 45.3863 51.4301C45.5988 51.659 45.8867 51.9852 46.2501 52.3972ZM44.897 51.7792C43.8878 50.5717 42.6102 49.493 41.0698 48.5402C40.2702 48.048 39.739 47.7991 39.479 47.7991C39.3532 47.7991 39.2917 47.8535 39.2917 47.9651C39.2917 48.2855 39.9123 48.8664 41.1536 49.7076C42.174 50.4029 43.4237 51.0953 44.897 51.7792Z" fill="white"/>
<path d="M47.6699 47.4329C47.9997 47.6246 48.2765 47.8134 48.503 47.9994C48.9447 48.3656 49.1655 48.729 49.1655 49.0867C49.1655 49.4014 49.0202 49.6446 48.7322 49.8192C48.5449 49.9308 48.324 49.9851 48.0696 49.9851C47.4406 49.9851 46.7445 49.782 45.9841 49.3757C45.1398 48.9236 44.4884 48.3771 44.0355 47.739C43.7419 47.3213 43.5938 46.9178 43.5938 46.5287C43.5938 46.2855 43.6664 46.0823 43.8146 45.9192C43.946 45.779 44.0914 45.7104 44.2563 45.7104C44.3821 45.7104 44.5555 45.759 44.7763 45.8591C44.8965 45.7704 45 45.7275 45.0922 45.7275C45.2125 45.7275 45.4081 45.8076 45.6793 45.9707C45.9561 46.1396 46.3251 46.3084 46.7864 46.4772C47.2757 46.6574 47.6671 46.7461 47.9606 46.7461C48.1982 46.7461 48.3939 46.6746 48.5477 46.5287C48.5868 46.4886 48.6539 46.3685 48.7434 46.171C48.8105 46.0251 48.9307 45.9536 49.1012 45.9536C49.2103 45.9536 49.2969 45.9936 49.364 46.0766C49.4367 46.1624 49.4759 46.2654 49.4759 46.3828C49.4759 46.6975 49.3389 46.9665 49.0677 47.1925C48.8468 47.3785 48.5673 47.4701 48.2346 47.4701C48.12 47.4701 47.9327 47.4586 47.6699 47.4329ZM44.8714 46.3456C44.7456 46.4142 44.6533 46.4915 44.5946 46.5716C44.5359 46.6517 44.5051 46.7404 44.5051 46.832C44.5051 47.2726 44.8826 47.7533 45.6374 48.2683C46.4705 48.8377 47.1778 49.121 47.7565 49.121C47.8991 49.121 48.0053 49.0924 48.0808 49.038C48.1535 48.9837 48.1927 48.9007 48.1927 48.7891C48.1927 48.5116 47.9047 48.1854 47.326 47.8134C47.0073 47.6045 46.5404 47.347 45.9226 47.038C45.52 46.8348 45.2544 46.6861 45.123 46.5945C45.0503 46.5516 44.9692 46.4686 44.8714 46.3456Z" fill="white"/>
<path d="M41.3184 39.9048C41.3184 39.5156 41.4553 39.2181 41.7265 39.0092C41.9418 38.8404 42.2018 38.7574 42.5093 38.7574C43.0601 38.7574 43.6863 38.9462 44.3908 39.3239C44.9975 39.6558 45.5426 40.0679 46.0235 40.56C46.3366 40.8862 46.4904 41.1408 46.4904 41.3268C46.4904 41.4499 46.4317 41.5615 46.3114 41.6673C46.2276 41.7417 46.1297 41.7818 46.0235 41.7818C45.825 41.7818 45.5985 41.6044 45.3441 41.2496C44.9807 40.7488 44.5837 40.354 44.1532 40.0564C43.5297 39.6215 43.0014 39.404 42.5708 39.404C42.3947 39.404 42.2633 39.4441 42.1794 39.5213C42.0956 39.5986 42.0508 39.7159 42.0508 39.8733C42.0508 40.1938 42.2773 40.6458 42.7302 41.2324C43.2418 41.8991 43.9351 42.6058 44.8158 43.3469C45.934 44.294 47.0327 45.0122 48.1175 45.5072C49.2413 46.0193 50.2002 46.274 50.9942 46.274C51.3744 46.274 51.6987 46.1595 51.9643 45.9335C52.2663 45.6846 52.4144 45.3784 52.4144 45.0179C52.4144 44.3913 51.9392 43.6016 50.9858 42.6487C50.6979 42.3655 50.2757 42.0193 49.7278 41.613C49.3755 41.3469 49.1267 41.1752 48.9785 41.0979C48.8136 41.0121 48.7325 40.9091 48.7325 40.7918C48.7325 40.663 48.7912 40.6001 48.9114 40.6001C49.1658 40.6001 49.739 40.9262 50.6308 41.5758C51.3744 42.1165 51.9811 42.7117 52.4508 43.3612C52.9792 44.0937 53.2419 44.7833 53.2419 45.4328C53.2419 46.1109 52.9456 46.6374 52.3473 47.0094C51.9671 47.2468 51.5338 47.367 51.0445 47.367C49.82 47.367 48.274 46.7747 46.4065 45.5902C44.8186 44.5801 43.5381 43.5157 42.568 42.3941C41.7349 41.427 41.3184 40.5972 41.3184 39.9048Z" fill="white"/>
<path d="M46.7725 36.9376C46.7725 36.4626 47.0548 36.2223 47.6223 36.2223C48.3772 36.2223 49.3333 36.58 50.4907 37.2924C51.7432 38.0707 52.3722 38.8232 52.3722 39.5471C52.3722 39.8847 52.2184 40.1308 51.9137 40.2882C51.76 40.3683 51.5754 40.4112 51.3602 40.4112C50.6333 40.4112 49.8449 40.1566 48.995 39.6444C48.2066 39.1694 47.5944 38.6086 47.1583 37.9648C46.8983 37.5871 46.7725 37.2438 46.7725 36.9376ZM49.9875 37.8418C49.8729 37.9877 49.7862 38.0592 49.7247 38.0592C49.68 38.0592 49.5542 37.9677 49.3501 37.7817C48.777 37.2581 48.3157 36.9977 47.9634 36.9977C47.9187 36.9977 47.874 37.012 47.8264 37.0406C47.7426 37.0864 47.6978 37.1608 47.6978 37.2581C47.6978 37.4441 47.874 37.7159 48.2262 38.0764C48.6791 38.5399 49.1488 38.8947 49.6296 39.1379C50.1804 39.4212 50.6361 39.5643 50.9995 39.5643C51.0946 39.5643 51.1813 39.5385 51.2539 39.487C51.3574 39.4126 51.4077 39.3153 51.4077 39.2009C51.4077 38.9233 51.2036 38.6229 50.7954 38.3053C50.6249 38.1651 50.4488 38.0535 50.2671 37.9648C50.0881 37.8761 49.9931 37.8361 49.9875 37.8418Z" fill="white"/>
<path d="M49.4337 34.7344C49.8755 34.9089 50.2333 35.0406 50.5045 35.1264C50.7757 35.2122 50.9658 35.258 51.0748 35.258C51.2174 35.258 51.2873 35.1894 51.2873 35.0491C51.2873 34.8403 51.0944 34.5713 50.7086 34.2394C50.5213 34.082 50.183 33.8503 49.6965 33.5441C49.5064 33.4182 49.4086 33.2923 49.4086 33.1578C49.4086 33.0062 49.4785 32.9318 49.6211 32.9318C49.8643 32.9318 50.3591 33.2179 51.1028 33.793C51.88 34.3911 52.2686 34.9461 52.2686 35.4555C52.2686 35.6758 52.1791 35.856 51.9974 35.9962C51.866 36.0935 51.7094 36.145 51.5221 36.145C51.2034 36.145 50.7645 36.0449 50.2026 35.8503C49.6406 35.6529 48.9585 35.361 48.1533 34.9719C46.1069 33.9733 44.4183 32.9547 43.0903 31.916C42.0252 31.0863 41.4912 30.3967 41.4912 29.853C41.4912 29.6785 41.5555 29.5354 41.6869 29.4267C41.8183 29.3094 41.9665 29.2522 42.137 29.2522C42.931 29.2522 44.2533 29.9789 46.1013 31.4296C46.9232 32.0791 47.7452 32.8574 48.5699 33.7644C48.7824 33.9962 49.0731 34.3224 49.4337 34.7344ZM48.0806 34.1135C47.0714 32.906 45.7938 31.8273 44.2533 30.8745C43.4538 30.3824 42.9226 30.1334 42.6626 30.1334C42.5368 30.1334 42.4753 30.1878 42.4753 30.2994C42.4753 30.6199 43.0959 31.2007 44.3372 32.0419C45.3604 32.7401 46.6073 33.4297 48.0806 34.1135Z" fill="white"/>
<path d="M50.8574 29.7701C51.1872 29.9618 51.464 30.1506 51.6905 30.3366C52.1322 30.7029 52.353 31.0662 52.353 31.4239C52.353 31.7386 52.2077 31.9819 51.9197 32.1564C51.7324 32.268 51.5115 32.3224 51.2571 32.3224C50.6281 32.3224 49.932 32.1192 49.1716 31.7129C48.3273 31.2608 47.6759 30.7143 47.223 30.0762C46.9294 29.6585 46.7812 29.255 46.7812 28.8659C46.7812 28.6227 46.8539 28.4195 47.0021 28.2565C47.1335 28.1162 47.2789 28.0476 47.4438 28.0476C47.5696 28.0476 47.743 28.0962 47.9638 28.1964C48.084 28.1077 48.1875 28.0647 48.2797 28.0647C48.3999 28.0647 48.5956 28.1449 48.8668 28.308C49.1436 28.4768 49.5126 28.6456 49.9739 28.8144C50.4632 28.9947 50.8546 29.0834 51.1481 29.0834C51.3857 29.0834 51.5814 29.0118 51.7352 28.8659C51.7743 28.8258 51.8414 28.7057 51.9309 28.5082C51.998 28.3623 52.1182 28.2908 52.2887 28.2908C52.3978 28.2908 52.4844 28.3308 52.5515 28.4138C52.6242 28.4997 52.6634 28.6027 52.6634 28.72C52.6634 29.0347 52.5264 29.3037 52.2552 29.5297C52.0343 29.7157 51.7548 29.8073 51.4221 29.8073C51.3047 29.8044 51.1174 29.793 50.8574 29.7701ZM48.0561 28.6828C47.9303 28.7515 47.838 28.8287 47.7793 28.9088C47.7206 28.9889 47.6898 29.0776 47.6898 29.1692C47.6898 29.6098 48.0673 30.0905 48.8221 30.6056C49.6552 31.175 50.3625 31.4582 50.9412 31.4582C51.0838 31.4582 51.19 31.4296 51.2655 31.3753C51.3382 31.3209 51.3774 31.2379 51.3774 31.1263C51.3774 30.8488 51.0894 30.5226 50.5107 30.1506C50.192 29.9418 49.7251 29.6842 49.1073 29.3752C48.7047 29.1721 48.4391 29.0233 48.3077 28.9317C48.235 28.8888 48.1539 28.803 48.0561 28.6828Z" fill="white"/>
</g>
<path d="M29.325 115H34.365V113.86H32.637V106.156H31.593C31.089 106.48 30.501 106.684 29.673 106.84V107.716H31.257V113.86H29.325V115ZM38.5567 115.156C40.2847 115.156 41.4127 113.62 41.4127 110.548C41.4127 107.5 40.2847 106 38.5567 106C36.8287 106 35.7007 107.488 35.7007 110.548C35.7007 113.62 36.8287 115.156 38.5567 115.156ZM38.5567 114.064C37.6567 114.064 37.0207 113.104 37.0207 110.548C37.0207 108.016 37.6567 107.092 38.5567 107.092C39.4567 107.092 40.0927 108.016 40.0927 110.548C40.0927 113.104 39.4567 114.064 38.5567 114.064ZM45.4005 115.156C47.1285 115.156 48.2565 113.62 48.2565 110.548C48.2565 107.5 47.1285 106 45.4005 106C43.6725 106 42.5445 107.488 42.5445 110.548C42.5445 113.62 43.6725 115.156 45.4005 115.156ZM45.4005 114.064C44.5005 114.064 43.8645 113.104 43.8645 110.548C43.8645 108.016 44.5005 107.092 45.4005 107.092C46.3005 107.092 46.9365 108.016 46.9365 110.548C46.9365 113.104 46.3005 114.064 45.4005 114.064ZM52.2442 115.156C53.9722 115.156 55.1002 113.62 55.1002 110.548C55.1002 107.5 53.9722 106 52.2442 106C50.5162 106 49.3882 107.488 49.3882 110.548C49.3882 113.62 50.5162 115.156 52.2442 115.156ZM52.2442 114.064C51.3442 114.064 50.7082 113.104 50.7082 110.548C50.7082 108.016 51.3442 107.092 52.2442 107.092C53.1442 107.092 53.7802 108.016 53.7802 110.548C53.7802 113.104 53.1442 114.064 52.2442 114.064ZM61.896 111.448V112.312H64.02V113.32H65.256V105.076H64.02V111.448H61.896ZM59.736 106.408C60.624 106.408 61.236 106.792 61.236 107.404C61.236 108.016 60.624 108.4 59.736 108.4C58.836 108.4 58.224 108.016 58.224 107.404C58.224 106.792 58.836 106.408 59.736 106.408ZM59.736 109.312C61.32 109.312 62.412 108.556 62.412 107.404C62.412 106.252 61.32 105.496 59.736 105.496C58.14 105.496 57.048 106.252 57.048 107.404C57.048 108.556 58.14 109.312 59.736 109.312ZM59.244 112.972H60.48V110.884C61.404 110.824 62.352 110.728 63.264 110.572L63.168 109.684C60.876 109.972 58.212 109.996 56.22 110.008L56.376 111.016C57.24 111.016 58.212 111.004 59.244 110.956V112.972ZM58.92 114.712V112.516H57.684V115.72H65.508V114.712H58.92Z" fill="white"/>
</g>
</g>
<defs>
<filter id="filter0_d_31_1250" x="-4" y="-4" width="102" height="138" filterUnits="userSpaceOnUse" color-interpolation-filters="sRGB">
<feFlood flood-opacity="0" result="BackgroundImageFix"/>
<feColorMatrix in="SourceAlpha" type="matrix" values="0 0 0 0 0 0 0 0 0 0 0 0 0 0 0 0 0 0 127 0" result="hardAlpha"/>
<feOffset/>
<feGaussianBlur stdDeviation="2"/>
<feColorMatrix type="matrix" values="0 0 0 0 0 0 0 0 0 0 0 0 0 0 0 0 0 0 0.5 0"/>
<feBlend mode="normal" in2="BackgroundImageFix" result="effect1_dropShadow_31_1250"/>
<feBlend mode="normal" in="SourceGraphic" in2="effect1_dropShadow_31_1250" result="shape"/>
</filter>
<clipPath id="clip0_31_1250">
<rect width="94" height="130" rx="10" fill="white"/>
</clipPath>
<clipPath id="clip1_31_1250">
<rect width="36" height="65" fill="white" transform="translate(29 11)"/>
</clipPath>
</defs>
</svg>
